<?xml version="1.0" standalone="no"?>
<!DOCTYPE svg PUBLIC "-//W3C//DTD SVG 20010904//EN"
 "http://www.w3.org/TR/2001/REC-SVG-20010904/DTD/svg10.dtd">
<svg version="1.0" xmlns="http://www.w3.org/2000/svg"
 width="484.000000pt" height="613.000000pt" viewBox="0 0 484.000000 613.000000"
 preserveAspectRatio="xMidYMid meet">

<g transform="translate(0.000000,613.000000) scale(0.100000,-0.100000)"
fill="#000000" stroke="none">
<path d="M1155 5950 c-11 -4 -248 -237 -527 -517 -432 -433 -508 -513 -513
-543 -3 -19 -4 -1043 -3 -2275 l3 -2240 22 -47 c29 -62 91 -128 150 -158 l48
-25 2085 0 2085 0 51 27 c28 15 70 48 92 73 79 90 72 -173 70 2825 l-3 2685
-22 41 c-12 23 -45 62 -73 87 -93 84 61 77 -1794 76 -908 0 -1660 -4 -1671 -9z
m3303 -246 l22 -15 0 -2635 c0 -2621 0 -2634 -20 -2654 -20 -20 -33 -20 -2038
-20 -1810 0 -2020 2 -2040 16 l-22 15 0 2170 0 2169 373 0 c370 0 372 0 423
24 61 28 114 81 146 144 23 46 23 53 26 425 l3 377 1552 0 c1389 0 1555 -2
1575 -16z m-3378 -425 c0 -219 -3 -255 -17 -271 -15 -16 -38 -18 -277 -18
l-261 0 275 275 c151 151 276 273 278 271 2 -2 3 -118 2 -257z"/>
<path d="M2646 5255 c-56 -20 -86 -45 -110 -91 -21 -38 -21 -51 -21 -689 l0
-650 27 -45 c16 -28 43 -55 70 -70 l43 -25 615 0 c338 0 627 3 642 7 38 11 86
54 108 99 19 37 20 63 20 684 0 520 -3 652 -14 678 -17 43 -76 93 -123 106
-25 7 -246 11 -628 11 -480 -1 -597 -3 -629 -15z m1204 -775 l0 -600 -29 0
-29 0 -3 128 c-3 105 -7 133 -24 161 -33 55 -83 88 -210 136 -66 25 -123 49
-127 53 -4 4 14 23 39 42 155 115 176 352 44 503 -18 20 -62 51 -98 69 -125
61 -274 37 -373 -62 -66 -66 -94 -138 -94 -240 0 -65 5 -96 21 -132 30 -67 71
-117 121 -149 l43 -27 -73 -30 c-40 -16 -97 -37 -126 -47 -67 -21 -130 -69
-155 -117 -16 -32 -19 -57 -18 -163 l2 -125 -31 0 -30 0 0 593 c0 327 3 597 7
600 4 4 262 7 575 7 l568 -1 0 -599z"/>
<path d="M750 4405 l0 -75 640 0 640 0 0 75 0 75 -640 0 -640 0 0 -75z"/>
<path d="M757 4133 c-4 -3 -7 -39 -7 -80 l0 -73 640 0 640 0 0 80 0 80 -633 0
c-349 0 -637 -3 -640 -7z"/>
<path d="M750 3715 l0 -75 640 0 640 0 0 75 0 75 -640 0 -640 0 0 -75z"/>
<path d="M918 3093 l-158 -4 0 -94 0 -95 1650 0 1650 0 0 95 c0 52 -3 95 -7
95 -362 3 -3027 5 -3135 3z"/>
<path d="M760 2513 l0 -98 1650 3 1650 2 0 95 0 95 -1650 0 -1650 0 0 -97z"/>
<path d="M760 2030 l0 -100 1650 0 1651 0 -3 98 -3 97 -1647 3 -1648 2 0 -100z"/>
<path d="M762 1545 c2 -52 6 -95 11 -95 4 0 394 0 867 0 l860 0 0 95 0 95
-870 0 -871 0 3 -95z"/>
<path d="M2990 1130 l0 -100 145 0 145 0 0 100 0 100 -145 0 -145 0 0 -100z"/>
<path d="M3380 1130 l0 -100 145 0 145 0 0 100 0 100 -145 0 -145 0 0 -100z"/>
<path d="M3770 1130 l0 -101 143 3 142 3 3 98 3 97 -146 0 -145 0 0 -100z"/>
<path d="M2990 745 l0 -95 518 -2 c285 -2 526 -2 535 0 14 3 17 18 17 98 l0
94 -535 0 -535 0 0 -95z"/>
</g>
</svg>
